<svg xmlns="http://www.w3.org/2000/svg" viewBox="0 0 24 24" fill="none">
  <path d="M20.625 5.25H14.25V3.375C14.25 2.339 15.089 1.5 16.125 1.5H18.75C19.786 1.5 20.625 2.339 20.625 3.375V5.25Z" fill="#5059C9"/>
  <path d="M17.4375 6.75C19.026 6.75 20.3125 5.463 20.3125 3.875C20.3125 2.287 19.026 1 17.4375 1C15.849 1 14.5625 2.287 14.5625 3.875C14.5625 5.463 15.849 6.75 17.4375 6.75Z" fill="#5059C9"/>
  <path d="M21.75 8.25H13.5C12.672 8.25 12 8.922 12 9.75V18C12 18.828 12.672 19.5 13.5 19.5H18V22.5L21 20.25V19.5H21.75C22.578 19.5 23.25 18.828 23.25 18V9.75C23.25 8.922 22.578 8.25 21.75 8.25Z" fill="#5059C9"/>
  <path d="M9.375 7.5C11.239 7.5 12.75 5.989 12.75 4.125C12.75 2.261 11.239 0.75 9.375 0.75C7.511 0.75 6 2.261 6 4.125C6 5.989 7.511 7.5 9.375 7.5Z" fill="#7B83EB"/>
  <path d="M13.5 9H5.25C4.422 9 3.75 9.672 3.75 10.5V19.5C3.75 20.328 4.422 21 5.25 21H9.75V23.25L12.375 21.375V21H13.5C14.328 21 15 20.328 15 19.5V10.5C15 9.672 14.328 9 13.5 9Z" fill="#7B83EB"/>
  <path d="M0.75 10.5H10.5C11.328 10.5 12 11.172 12 12V19.5C12 20.328 11.328 21 10.5 21H5.25V23.25L2.625 21.375V21H0.75C0.336 21 0 20.664 0 20.25V11.25C0 10.836 0.336 10.5 0.75 10.5Z" fill="#4B53BC"/>
</svg>
